<svg width="39" height="349" viewBox="0 0 39 349" fill="none" xmlns="http://www.w3.org/2000/svg">
<g clip-path="url(#clip0)">
<rect width="39" height="349" fill="white"/>
<path d="M17 282C17 292.017 17 297.507 17 299L17 282Z" stroke="#E4A74D"/>
<path d="M17 318C17 328.606 17 342.919 17 344.5L17 318Z" stroke="#E4A74D"/>
<path d="M17 179C17 200.802 17 212.751 17 216L17 179Z" stroke="#E4A74D"/>
<path d="M17 150C17 159.428 17 164.595 17 166L17 150Z" stroke="#E4A74D"/>
<path d="M17 137C17 141.714 17 144.297 17 145L17 137Z" stroke="#E4A74D"/>
<path d="M17 124C17 128.714 17 131.297 17 132L17 124Z" stroke="#E4A74D"/>
<path d="M17 -5C17 -0.286022 17 115.297 17 116L17 -5Z" stroke="#E4A74D"/>
<path d="M17 246C17 284.89 17 306.204 17 312L17 246Z" stroke="#E4A74D"/>
<path d="M2 312C11.0933 330.355 15.7778 340.981 16.9833 344L33 312" stroke="#E4A74D"/>
</g>
<defs>
<clipPath id="clip0">
<rect width="39" height="349" fill="white"/>
</clipPath>
</defs>
</svg>
